HIERARCHY
ROOT root
{
	OFFSET 0.000000 0.000000 0.000000
	CHANNELS 6 Xposition Yposition Zposition Zrotation Yrotation Xrotation
	JOINT lhip
	{
		OFFSET 0.058581 -0.082280 -0.017664
		CHANNELS 3 Zrotation Yrotation Xrotation
		JOINT lknee
		{
			OFFSET 0.043451 -0.386469 0.008037
			CHANNELS 3 Zrotation Yrotation Xrotation
			JOINT lankle
			{
				OFFSET -0.014790 -0.426874 -0.037428
				CHANNELS 3 Zrotation Yrotation Xrotation
				JOINT ltoe
				{
					OFFSET 0.041054 -0.060286 0.122042
					CHANNELS 3 Zrotation Yrotation Xrotation
					End Site
					{
						OFFSET 0.000000 0.000000 0.000000
					}
				}
			}
		}
	}
	JOINT rhip
	{
		OFFSET -0.060310 -0.090513 -0.013543
		CHANNELS 3 Zrotation Yrotation Xrotation
		JOINT rknee
		{
			OFFSET -0.043257 -0.383688 -0.004843
			CHANNELS 3 Zrotation Yrotation Xrotation
			JOINT rankle
			{
				OFFSET 0.019056 -0.420046 -0.034562
				CHANNELS 3 Zrotation Yrotation Xrotation
				JOINT rtoe
				{
					OFFSET -0.034840 -0.062106 0.130323
					CHANNELS 3 Zrotation Yrotation Xrotation
					End Site
					{
						OFFSET 0.000000 0.000000 0.000000
					}
				}
			}
		}
	}
	JOINT lowerback
	{
		OFFSET 0.004439 0.124404 -0.038385
		CHANNELS 3 Zrotation Yrotation Xrotation
		JOINT upperback
		{
			OFFSET 0.004488 0.137956 0.026820
			CHANNELS 3 Zrotation Yrotation Xrotation
			JOINT chest
			{
				OFFSET -0.002265 0.056032 0.002855
				CHANNELS 3 Zrotation Yrotation Xrotation
				JOINT lowerneck
				{
					OFFSET -0.013390 0.211636 -0.033468
					CHANNELS 3 Zrotation Yrotation Xrotation
					JOINT upperneck
					{
						OFFSET 0.010113 0.088937 0.050410
						CHANNELS 3 Zrotation Yrotation Xrotation
						End Site
						{
							OFFSET 0.000000 0.000000 0.000000
						}
					}
				}
				JOINT lclavicle
				{
					OFFSET 0.071702 0.114000 -0.018898
					CHANNELS 3 Zrotation Yrotation Xrotation
					JOINT lshoulder
					{
						OFFSET 0.122921 0.045205 -0.019046
						CHANNELS 3 Zrotation Yrotation Xrotation
						JOINT lelbow
						{
							OFFSET 0.255332 -0.015649 -0.022946
							CHANNELS 3 Zrotation Yrotation Xrotation
							JOINT lwrist
							{
								OFFSET 0.265709 0.012698 -0.007375
								CHANNELS 3 Zrotation Yrotation Xrotation
								End Site
								{
									OFFSET 0.000000 0.000000 0.000000
								}
							}
						}
					}
				}
				JOINT rclavicle
				{
					OFFSET -0.082954 0.112472 -0.023707
					CHANNELS 3 Zrotation Yrotation Xrotation
					JOINT rshoulder
					{
						OFFSET -0.113228 0.046853 -0.008472
						CHANNELS 3 Zrotation Yrotation Xrotation
						JOINT relbow
						{
							OFFSET -0.260127 -0.014369 -0.031269
							CHANNELS 3 Zrotation Yrotation Xrotation
							JOINT rwrist
							{
								OFFSET -0.269108 0.006794 -0.006027
								CHANNELS 3 Zrotation Yrotation Xrotation
								End Site
								{
									OFFSET 0.000000 0.000000 0.000000
								}
							}
						}
					}
				}
			}
		}
	}
}
MOTION
Frames: 17
Frame Time: 0.033333
0.064215 0.240159 0.921583 90.091371 1.693616 94.284225 13.129929 9.137582 -25.802700 -16.001855 3.398053 46.365006 1.235941 6.016239 -25.704057 0.000000 -0.000000 0.000000 -8.291465 -10.326262 -30.894628 11.230724 -7.776868 50.467750 3.266737 -0.812557 -22.424205 0.000000 -0.000000 0.000000 0.666414 -2.644374 13.520804 1.581855 0.869078 -12.361011 -2.173625 -3.075634 -1.044475 5.023957 1.847039 -8.062718 -5.993895 -2.303505 16.239925 -30.710343 16.269595 -11.014386 -26.946443 -4.956624 -5.501282 48.421053 -49.842618 -28.926681 -7.285627 -5.362045 5.525797 27.287699 -11.195521 -9.963898 13.544071 8.220558 -3.624328 -26.595599 44.171712 -19.323228 21.903529 4.324358 -10.726671 
0.064015 0.240184 0.922542 89.949998 1.989081 94.392028 13.336324 9.050132 -25.793876 -15.734937 3.418554 46.171818 1.310505 6.065776 -25.627631 0.000000 -0.000000 0.000000 -8.020736 -10.170357 -30.813464 11.175093 -7.927499 50.058200 3.081458 -0.673616 -22.130211 0.000000 -0.000000 0.000000 0.462938 -2.508741 13.167301 1.932962 0.783598 -12.258188 -1.944899 -2.956163 -1.204877 5.027147 2.001265 -7.667376 -6.254468 -2.381632 16.248330 -30.409925 16.426190 -10.555502 -27.912307 -5.091019 -5.402728 48.154658 -49.224244 -28.024431 -8.605743 -4.647246 3.432496 27.892747 -11.149452 -10.092548 13.840722 8.937620 -3.958346 -29.299551 43.764547 -21.184985 21.097199 4.316392 -10.133891 
0.064307 0.240307 0.923522 89.896353 2.286651 94.319425 13.550029 9.047683 -25.570610 -15.593543 3.300846 46.049335 1.362006 6.067224 -25.662826 0.000000 -0.000000 0.000000 -7.791039 -10.074450 -30.459204 11.322404 -7.918257 49.586825 2.905035 -0.750076 -21.962655 0.000000 -0.000000 0.000000 0.225580 -2.309925 12.771186 2.494610 0.589597 -11.874244 -1.585842 -2.985610 -1.313130 4.973733 2.482315 -7.420512 -6.708454 -2.329343 16.187845 -30.200119 16.462126 -9.933316 -28.441769 -4.945500 -5.431440 48.154455 -49.018346 -27.784010 -9.581958 -4.042513 1.505775 28.733430 -10.968172 -10.188212 14.059642 9.788798 -4.354607 -31.571451 43.384416 -23.016012 19.331934 4.396769 -9.191138 
0.064967 0.240714 0.924241 90.091377 2.636560 94.137046 13.927355 8.853032 -25.268636 -15.555720 3.286254 45.940743 1.398681 6.061570 -25.670495 0.000000 -0.000000 0.000000 -7.593137 -10.085143 -29.871277 11.531258 -7.968476 49.037870 2.657804 -0.926024 -21.779885 0.000000 -0.000000 0.000000 -0.260755 -2.067260 12.396854 3.552580 0.150479 -11.499506 -0.897669 -3.172816 -1.414995 4.991137 3.202260 -7.170764 -7.553338 -2.288377 16.230629 -29.494747 16.843658 -8.979208 -29.083405 -4.615362 -5.381569 47.376561 -49.385956 -27.074946 -10.732055 -3.914047 -1.269259 29.684979 -10.673949 -10.444317 14.476571 11.228051 -4.778453 -33.950139 42.218058 -24.633199 17.374080 4.356953 -6.801225 
0.064902 0.241103 0.924404 90.219069 2.835935 94.016114 14.122750 8.787035 -25.182360 -15.546538 3.240682 46.017557 1.397829 5.981447 -25.742251 0.000000 -0.000000 0.000000 -7.506598 -10.012142 -29.603006 11.701594 -8.001370 48.825738 2.580246 -1.128360 -21.740909 0.000000 -0.000000 0.000000 -0.631401 -1.878346 12.175607 4.274422 -0.065605 -11.186307 -0.366539 -3.379544 -1.374036 4.984332 3.671391 -7.197863 -8.090051 -2.291185 16.213682 -28.940960 17.051894 -8.367089 -29.442853 -4.427046 -5.186797 46.753564 -49.800261 -26.793656 -10.553154 -4.219229 -3.183326 30.326534 -10.430546 -10.699166 14.546928 12.198078 -4.970174 -34.714223 41.336109 -25.349322 15.989623 4.394906 -5.531547 
0.064926 0.241499 0.924457 90.514246 3.083799 93.751512 14.424660 8.567435 -24.966285 -15.603624 3.217258 46.084209 1.280578 5.922661 -25.850734 0.000000 -0.000000 0.000000 -7.418728 -9.902025 -29.141348 11.830362 -8.141223 48.599170 2.467018 -1.427318 -21.711462 0.000000 -0.000000 0.000000 -1.135245 -1.681931 11.986364 5.213974 -0.424972 -10.777200 0.306090 -3.610100 -1.263383 5.132533 4.233529 -7.281881 -8.724524 -2.592041 16.284119 -28.018991 17.286316 -7.565987 -29.879737 -4.159794 -4.997989 46.560833 -50.499808 -26.378237 -10.349230 -4.751150 -5.110325 31.039902 -10.184399 -10.888028 14.996024 13.346542 -5.190959 -35.439530 40.205538 -25.681295 13.748213 4.635245 -3.816363 
0.065233 0.242091 0.924321 90.736891 3.314293 93.492655 14.641636 8.542471 -24.752067 -15.644683 3.073068 46.207426 1.351201 5.871680 -25.948783 0.000000 -0.000000 0.000000 -7.268483 -9.861504 -28.752834 11.921898 -8.102608 48.490044 2.338789 -1.655372 -21.707038 0.000000 -0.000000 0.000000 -1.477082 -1.426322 11.824217 6.005211 -0.629753 -10.417914 0.839217 -3.712598 -1.241083 5.277046 4.643534 -7.052038 -9.099661 -3.072884 16.298010 -27.129946 17.466418 -7.024732 -29.904923 -4.142590 -4.934634 46.396683 -51.546303 -25.780199 -10.353675 -5.057997 -6.246976 31.559481 -10.174267 -10.965167 15.683360 13.915485 -5.277636 -36.344940 39.372748 -25.830747 12.162980 4.817384 -2.068221 
0.065382 0.242923 0.924010 90.924747 3.403068 93.250055 14.732404 8.455209 -24.564326 -15.717194 3.065503 46.349131 1.389695 5.848169 -26.068986 0.000000 -0.000000 0.000000 -7.327153 -9.811591 -28.412333 11.946517 -8.184980 48.444274 2.293050 -1.737395 -21.762770 0.000000 -0.000000 0.000000 -1.755917 -1.157502 11.553294 6.544938 -0.745011 -9.976112 1.171313 -3.732538 -1.115509 5.486240 4.863408 -6.755154 -9.165815 -3.574695 16.025711 -26.508944 17.404095 -6.618151 -29.501505 -4.242268 -4.845977 47.011823 -52.443985 -26.432022 -10.204590 -5.568429 -7.356344 32.121780 -10.229524 -11.048484 16.383325 14.006242 -5.236431 -37.193812 38.753044 -26.501864 10.889845 5.189480 -1.193992 
0.065279 0.243964 0.923514 91.165728 3.477005 93.076585 14.698674 8.427944 -24.505100 -15.762932 2.873131 46.534822 1.458791 5.833302 -26.228002 0.000000 -0.000000 0.000000 -7.378315 -9.868985 -28.164017 11.982722 -8.223888 48.416565 2.320372 -1.787001 -21.828838 0.000000 -0.000000 0.000000 -1.835621 -1.028403 11.359690 6.939025 -0.803646 -9.774234 1.346740 -3.777720 -0.923861 5.616305 4.936761 -6.514397 -9.263924 -3.890561 16.067515 -26.078918 17.422777 -6.401857 -29.122232 -4.680034 -4.765025 47.521696 -52.933006 -26.793508 -9.035151 -6.015188 -8.005012 32.537392 -10.336472 -11.139323 16.975748 14.093182 -5.047323 -37.536158 38.136950 -26.815275 9.624692 5.590759 -0.895103 
0.065333 0.245668 0.923130 91.279439 3.482790 92.895009 14.606176 8.375949 -24.369092 -15.789667 2.846607 46.662954 1.624695 5.884188 -26.391350 0.000000 -0.000000 0.000000 -7.515005 -9.915086 -27.912903 11.944525 -8.235060 48.412146 2.369485 -1.815611 -21.880544 0.000000 -0.000000 0.000000 -1.643458 -1.012505 11.276597 7.062752 -0.735013 -9.655288 1.347052 -3.721901 -0.759829 5.700025 5.006143 -6.273421 -9.347236 -4.000962 16.167769 -25.985842 17.572017 -6.576039 -28.696508 -4.949903 -4.876190 49.341756 -53.864349 -28.166302 -8.491525 -5.937180 -7.442331 32.960518 -10.472549 -11.232900 17.475058 13.828576 -4.866750 -37.810115 37.798989 -27.124555 8.718813 5.752806 -0.258653 
0.065505 0.247157 0.922982 91.175328 3.325374 92.782036 14.453540 8.363252 -24.121168 -15.903956 2.984620 46.546662 1.675737 5.774337 -26.354210 0.000000 -0.000000 0.000000 -7.764849 -9.944299 -27.764619 11.849432 -8.126524 48.400976 2.344481 -1.620267 -21.939547 0.000000 -0.000000 0.000000 -1.462129 -1.015622 11.003057 7.019392 -0.672406 -9.387077 1.197554 -3.614925 -0.668803 5.676110 5.131358 -5.591724 -9.386175 -3.946546 15.974412 -26.088019 17.608473 -6.882940 -28.646979 -5.051545 -4.833226 50.885055 -54.192527 -29.226947 -7.781328 -6.013009 -7.012513 32.956298 -10.587212 -11.030396 18.138880 13.755158 -4.780432 -38.222091 37.457739 -27.535964 7.994542 5.866508 -0.301657 
0.065451 0.248839 0.923259 91.102456 3.119021 92.575376 14.167076 8.233629 -23.765459 -15.934733 3.082780 46.340419 1.826232 5.842696 -26.350202 0.000000 -0.000000 0.000000 -8.098628 -10.069842 -27.466540 11.768678 -8.033337 48.310103 2.665161 -1.387479 -21.869307 0.000000 -0.000000 0.000000 -1.143342 -1.026931 10.914731 6.789200 -0.595458 -9.215305 0.931839 -3.416371 -0.505545 5.588537 5.093385 -4.903126 -9.185996 -3.867835 15.694483 -26.271658 17.548693 -7.134721 -28.777618 -5.505395 -4.748612 51.570905 -54.144542 -29.934445 -6.810994 -6.034038 -6.900423 32.975735 -10.634982 -10.926771 18.627415 13.430510 -4.578999 -38.763689 37.295747 -28.206494 7.162487 6.122079 -0.275957 
0.065409 0.250088 0.924025 90.981475 2.999977 92.427987 13.883918 8.196328 -23.407689 -15.904660 2.999314 46.079703 1.993738 5.958669 -26.302203 0.000000 -0.000000 0.000000 -8.219814 -10.087077 -27.269023 11.647322 -7.780308 48.168512 2.481157 -1.304772 -21.858292 0.000000 -0.000000 0.000000 -0.778524 -1.084075 10.613252 6.530612 -0.456023 -8.876725 0.683130 -3.157211 -0.318803 5.641516 4.935927 -3.924242 -8.991105 -3.546076 15.117964 -26.819846 17.330102 -7.682318 -28.540861 -5.716147 -4.550296 51.385467 -54.313335 -30.399934 -6.389871 -5.525602 -6.607356 32.968756 -10.649782 -10.993087 18.805945 13.011680 -4.288862 -39.072525 37.442985 -28.832441 6.719503 5.988975 -0.025511 
0.065653 0.251072 0.925240 90.728840 2.804874 92.251704 13.537936 8.173905 -22.887485 -15.756422 3.059636 45.672749 2.086033 5.952314 -26.244130 0.000000 -0.000000 0.000000 -8.381512 -10.008082 -27.010265 11.473136 -7.500251 47.975151 2.512647 -1.172825 -21.750065 0.000000 -0.000000 0.000000 -0.570015 -1.094272 10.171874 6.298344 -0.338492 -8.576513 0.439933 -3.029886 -0.097277 5.667017 4.753642 -2.528086 -8.865878 -3.237711 14.402263 -27.270633 17.186996 -8.251593 -28.633007 -6.448883 -4.422748 50.178502 -53.373513 -29.410399 -6.822089 -5.571778 -6.381393 32.908670 -10.740924 -11.077764 18.957953 13.061310 -3.946775 -39.197158 37.525117 -28.880287 7.281482 5.783411 0.053124 
0.066076 0.251709 0.926668 90.595127 2.644325 92.097885 13.192586 8.122264 -22.397281 -15.664934 2.945158 45.254390 2.115605 6.020501 -26.222317 0.000000 -0.000000 0.000000 -8.553349 -9.970111 -26.601322 11.337820 -7.334584 47.564524 2.619947 -1.086913 -21.558658 0.000000 -0.000000 0.000000 -0.361749 -1.161428 9.710378 6.032488 -0.338580 -8.323354 0.223122 -2.938372 0.068954 5.864584 4.605825 -0.564614 -8.662425 -2.729997 13.100086 -27.731000 16.983115 -8.868787 -28.234070 -6.711078 -4.172289 48.525171 -52.856021 -28.619936 -7.298577 -5.210294 -6.362162 32.710071 -10.816044 -11.292390 19.050405 13.174527 -3.513228 -38.892366 37.706715 -28.962420 7.813880 5.481226 0.061400 
0.066356 0.251888 0.928097 90.397254 2.551042 91.980951 12.953652 8.105737 -21.925543 -15.562303 2.923575 44.802213 2.304703 6.090871 -26.236545 0.000000 -0.000000 0.000000 -8.631250 -9.855274 -26.308763 11.183248 -7.221064 47.215183 2.604276 -0.872571 -21.418639 0.000000 -0.000000 0.000000 -0.218385 -1.217395 9.189957 5.825323 -0.337132 -8.087804 0.084381 -2.749555 0.120904 5.930128 4.337605 1.910395 -8.451238 -2.279273 11.576640 -27.975429 16.710371 -9.192210 -28.203323 -6.994320 -4.030554 47.376583 -52.059566 -28.200174 -7.388590 -5.289775 -6.147359 32.251443 -10.820316 -11.423459 19.273659 13.128008 -3.093206 -38.656506 37.889055 -28.947978 7.690485 5.458269 -0.043771 
0.066969 0.251829 0.929406 90.215470 2.458836 91.934774 12.738645 8.086165 -21.532203 -15.465670 2.934869 44.395729 2.479886 6.100833 -26.281806 0.000000 -0.000000 0.000000 -8.672223 -9.836341 -26.134435 11.133586 -7.028020 46.951469 2.587870 -0.825818 -21.307258 0.000000 -0.000000 0.000000 -0.133417 -1.302480 8.337593 5.655471 -0.440070 -7.587478 -0.070461 -2.632452 0.332961 6.019270 4.070415 4.282682 -8.228087 -1.703032 9.768523 -28.182967 16.559843 -9.720081 -28.089573 -7.329613 -3.787569 46.202021 -51.464421 -27.410172 -7.295260 -4.668272 -6.117939 31.967626 -10.914967 -11.653161 19.465571 13.449690 -2.699539 -38.516897 38.250728 -28.782772 7.812531 5.034786 -0.015438 
